<?xml version="1.0" encoding="UTF-8"?>
<svg id="Layer_1" data-name="Layer 1" xmlns="http://www.w3.org/2000/svg" viewBox="0 0 829.62 365.94">
  <defs>
    <style>
      .cls-1 {
        fill: #1d6ecb;
      }

      .cls-2 {
        fill: #00205b;
      }
    </style>
  </defs>
  <g>
    <polygon class="cls-1" points="526.02 88.06 497.35 88.06 497.35 139.4 453.25 139.4 453.25 88.06 424.59 88.06 424.59 198.31 453.25 198.31 453.25 144.44 497.35 144.44 497.35 198.31 526.02 198.31 526.02 88.06"/>
    <path class="cls-1" d="M735.18,188.39l-24.25-34.49h-13.55c-4.62,0-8.14-.44-10.55-1.34-2.42-.89-4.78-2.91-7.09-6.06h7.09c10.4,0,18.82-.92,25.28-2.76,6.46-1.84,11.31-4.99,14.57-9.45,3.25-4.46,4.88-10.47,4.88-18.03,0-10.18-3.57-17.43-10.71-21.73-7.14-4.3-17.64-6.46-31.5-6.46h-49.22s0,110.25,0,110.25h28.59s0-51.82,0-51.82h5.83s33.7,51.82,33.7,51.82h33.91s-6.98-9.92-6.98-9.92ZM668.72,141.77v-48.98s11.18,0,11.18,0c5.14,0,9.34.68,12.6,2.05,3.25,1.37,5.77,3.86,7.56,7.48,1.78,3.62,2.68,8.53,2.68,14.73,0,9.13-2,15.54-5.98,19.21-3.99,3.68-9.61,5.51-16.85,5.51h-11.18Z"/>
    <path class="cls-1" d="M275.46,153.89h0s-13.46,0-13.46,0c-4.62,0-8.14-.44-10.55-1.34-2.42-.89-4.78-2.91-7.09-6.06h7.09c10.4,0,18.82-.92,25.28-2.76,6.46-1.84,11.31-4.99,14.57-9.45,3.25-4.46,4.88-10.47,4.88-18.03,0-10.18-3.57-17.43-10.71-21.73-7.14-4.3-17.64-6.46-31.5-6.46h-49.16s0,110.25,0,110.25h28.59s-.06-51.82-.06-51.82h5.83s33.7,51.82,33.7,51.82h33.83s-31.23-44.41-31.23-44.41ZM233.33,141.77v-48.98s11.18,0,11.18,0c5.14,0,9.34.68,12.6,2.05,3.25,1.37,5.77,3.86,7.56,7.48,1.78,3.62,2.68,8.53,2.68,14.73,0,9.13-2,15.54-5.98,19.21-3.99,3.68-9.61,5.51-16.85,5.51h-11.18Z"/>
    <path class="cls-1" d="M87.47,198.31h5.17s13.94-37.17,13.94-37.17h38.77s14.61,37.17,14.61,37.17h29.96s-44.95-110.25-44.95-110.25h-15.91s-41.59,110.25-41.59,110.25ZM125.12,111.68h.79s17.58,44.73,17.58,44.73h-35.14s16.77-44.73,16.77-44.73Z"/>
    <polygon class="cls-1" points="576.66 193.58 576.66 193.54 576.66 144.31 576.66 144.29 605.48 144.31 605.48 139.87 576.66 139.87 576.66 139.72 576.66 92.78 576.66 92.78 622.35 92.78 621.86 88.06 547.99 88.06 547.99 198.31 625.64 198.31 626.17 193.54 576.66 193.58"/>
    <path class="cls-1" d="M391.94,195.74c6.41-2.87,12.35-6.92,17.41-12.25l-3.09-3.75-.43.43c-2.35,2.34-4.83,4.43-7.43,6.26-12.36,8.95-27.46,12.97-39.78,3.86h-.08c-.66-.49-1.31-1.02-1.95-1.57-2.42-2.13-4.58-4.71-6.5-7.71-.08-.13-.17-.24-.25-.37h0c-2.14-3.41-3.96-7.35-5.46-11.85-2.89-8.66-4.33-18.92-4.33-30.79,0-9.76,1.36-18.19,4.09-25.28,2.73-7.09,6.48-12.49,11.26-16.22,4.78-3.73,10.37-5.59,16.77-5.59,4.32,0,8.35.99,12.09,2.93v25.45c2.73,1.47,5.46,2.2,8.19,2.2,3.88,0,6.93-1.21,9.13-3.62,2.2-2.41,3.31-5.41,3.31-8.98,0-4.41-1.34-8.35-4.02-11.81-8-10.35-23.51-11.37-30.28-11.37-11.55,0-21.97,2.2-31.26,6.62-9.29,4.41-16.62,11.13-21.97,20.16-5.36,9.03-8.03,20.16-8.03,33.39,0,11.45,2.47,21.32,7.4,29.61,13.14,22.28,44.65,31.12,70.46,22.15.75-.26,2.98-1.09,4.73-1.88Z"/>
  </g>
  <g>
    <path class="cls-2" d="M87.6,258.82c0-13.18,8.31-21.67,20.36-21.67,6,0,11.74,2.12,15.43,5.81l-3.19,4.31c-3.06-2.75-7.37-4.81-12.49-4.81-8.87,0-14.24,6.18-14.24,16.18s5.5,16.3,14.62,16.3c5.12,0,9.24-2.06,12.3-4.81l3.19,4.31c-3.68,3.62-9.18,5.81-15.55,5.81-12.49,0-20.43-8.5-20.43-21.42Z"/>
    <path class="cls-2" d="M133.12,237.77h5.87v17.93h21.61v-17.93h5.87v41.85h-5.87v-18.55h-21.61v18.55h-5.87v-41.85Z"/>
    <path class="cls-2" d="M179.33,238.28c5.12-.62,9.87-1.13,13.43-1.13,10.68,0,17.36,4,17.36,14.62,0,6.37-3.31,10.68-8.43,12.8l8.62,15.05h-6.56l-7.74-13.62c-.87.06-1.81.12-2.75.12-2.44,0-5.18-.19-8.06-.44v13.93h-5.87v-41.35ZM185.21,242.96v17.3c2.93.44,5.62.56,8.12.56,5.62,0,10.93-2.5,10.93-9.06,0-7.93-4.87-9.31-11.55-9.31-1.87,0-4.56.06-7.49.5Z"/>
    <path class="cls-2" d="M221.42,237.77h5.87v41.85h-5.87v-41.85Z"/>
    <path class="cls-2" d="M238.09,274.07l3.25-4.37c3.31,3.25,7.99,5.31,12.18,5.31,5.12,0,8.87-2.31,8.87-6.56,0-4.81-4.56-6.12-9.74-7.31-5.93-1.37-13.3-3.56-13.3-11.99,0-7.06,5.18-12.05,14.12-12.05,5.06,0,10.25,1.75,13.8,5.37l-2.87,4.56c-3.12-2.75-6.81-4.62-11.12-4.62-5.81,0-8.12,3-8.12,6.12,0,4.87,4.06,6.12,9.93,7.56,6.25,1.5,13.11,3.43,13.11,11.74s-6.93,12.43-14.86,12.43c-5.56,0-11.43-2.19-15.24-6.18Z"/>
    <path class="cls-2" d="M288.55,243.08h-13.93v-5.31h33.73v5.31h-13.93v36.54h-5.87v-36.54Z"/>
    <path class="cls-2" d="M317.27,237.77h5.87v41.85h-5.87v-41.85Z"/>
    <path class="cls-2" d="M346.74,237.77h9.24l14.99,41.85h-5.87l-3.94-11.12h-19.61l-3.94,11.12h-5.87l14.99-41.85ZM359.24,263.2l-7.18-20.11h-1.37l-7.18,20.11h15.74Z"/>
    <path class="cls-2" d="M379.28,237.77h9.06l17.68,35.23h.12v-35.23h5.87v41.85h-8.93l-17.8-35.6h-.12v35.6h-5.87v-41.85Z"/>
    <path class="cls-2" d="M453.65,237.77h9.24l14.99,41.85h-5.87l-3.94-11.12h-19.61l-3.94,11.12h-5.87l14.99-41.85ZM466.14,263.2l-7.18-20.11h-1.37l-7.18,20.11h15.74Z"/>
    <path class="cls-2" d="M483.18,258.82c0-13.18,8.31-21.67,20.36-21.67,6,0,11.74,2.12,15.43,5.81l-3.19,4.31c-3.06-2.75-7.37-4.81-12.49-4.81-8.87,0-14.24,6.18-14.24,16.18s5.5,16.3,14.62,16.3c5.12,0,9.24-2.06,12.3-4.81l3.19,4.31c-3.68,3.62-9.18,5.81-15.55,5.81-12.49,0-20.43-8.5-20.43-21.42Z"/>
    <path class="cls-2" d="M539.13,237.77h9.24l14.99,41.85h-5.87l-3.94-11.12h-19.61l-3.94,11.12h-5.87l14.99-41.85ZM551.63,263.2l-7.18-20.11h-1.37l-7.18,20.11h15.74Z"/>
    <path class="cls-2" d="M571.66,279.12v-40.85c4.87-.62,9.43-1.13,13.3-1.13,14.3,0,21.24,7.75,21.24,21.55s-6.93,21.55-21.24,21.55c-3.87,0-8.43-.5-13.3-1.13ZM577.54,243.08v31.23c2.69.5,5.18.62,7.49.62,10.24,0,15.3-4.75,15.3-16.24s-5.18-16.24-15.3-16.24c-2.31,0-4.81.12-7.49.62Z"/>
    <path class="cls-2" d="M616.69,237.77h28.23v5.31h-22.36v12.8h19.24v5.31h-19.24v13.12h22.36v5.31h-28.23v-41.85Z"/>
    <path class="cls-2" d="M657.15,237.77h10.43l10.25,28.61,10.24-28.61h10.37v41.85h-5.87v-36.98h-.38l-11.31,30.92h-6.18l-11.31-30.92h-.37v36.98h-5.87v-41.85Z"/>
    <path class="cls-2" d="M721.6,264.95l-14.55-27.17h6.25l10.99,21.3h.5l10.99-21.3h6.25l-14.55,27.11v14.74h-5.87v-14.68Z"/>
  </g>
</svg>