<?xml version="1.0" encoding="UTF-8"?>
<svg id="Layer_1" data-name="Layer 1" xmlns="http://www.w3.org/2000/svg" viewBox="0 0 947.01 549.87">
  <defs>
    <style>
      .cls-1 {
        fill: #1d6ecb;
      }

      .cls-2 {
        fill: #fff;
      }
    </style>
  </defs>
  <path class="cls-1" d="M739.83,109.8H207.19c-43.68,0-83.06,26.31-99.78,66.67l-36.98,89.28v18.37l36.98,89.28c16.72,40.36,56.1,66.67,99.78,66.67h532.64c43.68,0,83.06-26.31,99.78-66.67l36.98-89.28v-18.37l-36.98-89.28c-16.72-40.36-56.1-66.67-99.78-66.67Z"/>
  <g>
    <path class="cls-2" d="M534.87,356.28l-46.12-13.44c-7.99-2.18-9.44-5.45-9.44-14.53v-110.77c0-7.63,2.54-12.35,6.54-15.25,3.27-2.54,8.35-3.99,14.53-2.18l21.06,5.81c5.81,1.82,8.72.73,11.26-2.91l15.98-24.7c2.18-3.27,2.18-6.54-2.18-7.63l-39.22-11.26c-3.99-1.09-7.99-1.82-11.98-1.82s-7.63.73-12.35,2.91c-11.98,5.45-23.97,14.16-33.41,25.06-6.17,7.63-9.08,14.89-9.08,31.96v48.18h-33.11s0-64.53,0-64.53c0-21.43-1.45-27.24-20.34-32.69l-31.6-9.08c-3.99-1.09-7.99-1.82-11.98-1.82s-7.63.73-12.35,2.91c-11.98,5.45-23.97,14.16-33.41,25.06-6.17,7.63-9.08,14.89-9.08,31.96v48.18h-151.32s-2.18,7.31-2.18,7.31l2.02,6.84h14.73l-13.29,24.29h40.36l11.52-19.45h8.07l-11.52,19.45h12.13l11.51-19.45h8.07l-11.52,19.45h14.51l14.38-24.29h204.39s0,63.7,0,63.7c0,21.43,3.27,29.05,22.52,34.5l43.22,12.35c3.63,1.09,6.17,1.82,7.99,1.82,3.27,0,5.08-1.45,6.54-3.63l16.34-25.06c1.82-2.91,1.82-6.17-2.18-7.26ZM368.48,254.59h-29.42c-9.44,0-11.62-2.18-11.62-10.53v-26.15c0-6.54,1.82-10.9,4.72-13.8,3.63-4.36,9.08-6.17,16.71-3.99l11.62,3.27c7.26,2.18,7.99,5.08,7.99,13.44v37.77Z"/>
    <path class="cls-2" d="M565.74,378.08c0,8.72,2.54,11.62,11.62,11.62h27.24v-95.46h-38.86v83.84Z"/>
    <path class="cls-2" d="M645.64,305.13v72.94c0,8.72,2.54,11.62,11.62,11.62h27.24v-95.46h-50.12c9.08,0,11.26,2.54,11.26,10.89Z"/>
    <path class="cls-2" d="M368.48,305.13v72.94c0,8.72,2.54,11.62,11.62,11.62h27.24v-95.46h-50.12c9.08,0,11.26,2.54,11.26,10.89Z"/>
    <path class="cls-2" d="M288.58,378.08c0,8.72,2.54,11.62,11.62,11.62h27.24v-95.46h-38.86v83.84Z"/>
    <polygon class="cls-2" points="194.73 256.89 185.58 241.44 138.54 241.44 146.99 256.89 194.73 256.89"/>
    <polygon class="cls-2" points="230.83 256.89 221.68 241.44 193.65 241.44 202.8 256.89 230.83 256.89"/>
    <path class="cls-2" d="M811.93,272.81l-74.74-29.64,2.63,13.68,37.19,8.89h-35.48s-57.03,0-57.03,0v-64.53c0-21.43-1.45-27.24-20.34-32.69l-31.6-9.08c-3.99-1.09-7.99-1.82-11.98-1.82s-7.63.73-12.35,2.91c-11.98,5.45-23.97,14.16-33.41,25.06-6.17,7.63-9.08,14.89-9.08,31.96v48.18h-72.04v14.14h247.83s-4.34,22.57-4.34,22.57l74.74-29.64ZM645.64,254.59h-29.42c-9.44,0-11.62-2.18-11.62-10.53v-26.15c0-6.54,1.82-10.9,4.72-13.8,3.63-4.36,9.08-6.17,16.71-3.99l11.62,3.27c7.26,2.18,7.99,5.08,7.99,13.44v37.77Z"/>
  </g>
</svg>