<svg viewBox="81.37022026431718 96.24404000000001 579.5552422907489 635.54254" xmlns="http://www.w3.org/2000/svg" data-name="Layer 1" id="Layer_1" style="max-height: 500px" width="579.5552422907489" height="635.54254">
  <defs>
    <style>
      .cls-1 {
        fill: #fff;
      }
    </style>
  </defs>
  <path d="M276.44,348.08c-.48-.48-.61-1.19-.39-1.82,1.78-5.11,1.34-9.71,5.01-13.1.58-.53,1.44-.62,2.1-.21l1.59.98c.35.21.59.55.72.94.78,2.22,2.25,3.75,3.85,5.14.51.44.7,1.14.51,1.79l-.46,1.53c-.19.64-.75,1.1-1.41,1.21-4.66.76-7.11,2.22-9.31,3.76-.69.48-1.61.4-2.21-.19h-.01ZM197.06,359.83c-8.66-1.61-16.65-3.38-20.39-6.18l-12.38,32.23h18.23l14.54-26.05ZM281.87,314.5l1.71-2.93-8.05-21.09-25.36-1.34-2.44,1.68c-.8.55-.99,1.66-.42,2.44l1.27,1.73,1.85,5.98c.14.46.09.96-.16,1.38l-2.19,3.74c-.23.39-.6.67-1.03.79l-4.54,1.26c-.9.25-1.74.71-2.36,1.41-5.19,5.8-7.85,15.4-9.98,25.79-5.02,24.47,24.53,12.65,35.35,20.36l-4.49-6.93c-.69-1.06-.74-2.42-.13-3.53l3.52-6.43c.3-.56.3-1.25-.06-1.77-2.78-3.98-6.63-4.81-10.05-9.39-9.18-15.03,13.65-21.68,27.55-13.15ZM202.64,325.58s5.14,2.21,7.25,3.21c.45.21.96.22,1.4.02l.71-.33c.47-.22.81-.65.92-1.16l.31-1.49c.05-.25.05-.51-.02-.75-.13-.45-.39-1.12-.59-1.6-.16-.39-.46-.69-.84-.87-3.27-1.47-6.46-3.39-9.59-5.6-.64-.45-1.51-.41-2.08.13-3.59,3.43-6.62,7.69-8.94,13.02-.12.28-.17.6-.14.9.77,6.81,5.13,13.09,11.65,17.7.9.64,2.16.26,2.52-.78l.16-.45c.22-.63.03-1.32-.46-1.77-4.8-4.34-7.9-9.15-8.51-14.63,1.61-2.14,3.22-4.28,6.25-5.56ZM281.63,435.4c15.01,19.48,10.4,38.51,18.11,65.52l29.54-20.39c.05-.09-45.57-51.81-45.57-51.81l-2.07,6.67ZM263.25,368.38c-2.62-2.73-7.23-2.74-7.23-2.74-4.6,3.67-9.28,12.24-10.45,18.75h5.61l12.07-16.01ZM214.83,495.74l16.1,25.59c5.46,4.65,13.66,6.37,22,10.77l.35,3.59c-9.76,2.6-21.92,6.75-34.97,11.46,9.36,7.11,24.9,30.34,42.27,47.94,4.48-9.34,6.08-20.88,6.6-33.24,6.58,3.35,15.13,8.69,24.24,14.59l-2.12-33.58c-3.48-3.68-7.89-6.45-12.85-8.69l3.94-9.03,11.04-10.42v-7.64c-15.87-19.82-31.97-38.37-48.48-54.66-10.02,17.51-19.76,33.7-28.1,43.31ZM93.1,456.14v7.64l23.26-10.99-23.26,3.35ZM555.84,466.17c8.73-1.49,17.68-2.88,18.07-8.34-4.54.36-11.44-.67-18.07-1.54v9.88ZM574.6,426.32l-9.46-16.82-17.87-5.52h-13.34l-16.45,29.62c10.93.17,21.09-.88,26.11-10.16l.26-10.78c9.2,6.13,18.71,14.78,30.76,17.35v-3.68ZM574.6,438.82c-7.56-.21-15.11-.43-19.45-1.16v11.12c7.11-1.57,13.86-3.35,19.45-5.79v-4.17ZM203.25,423.71l13.43,16.68-.93,7.41c4.27-3.01,7.76-6.95,9.73-12.74l-14.82-22,2.32-2.08,16.44,11.35.23,6.02c2.99-1.82,5.08-4.92,6.49-9.03l-20.61-23.39c10.13,3.87,19.03,8.2,24.32,13.9,1.92-1.94,2.85-5.04,3.09-8.96-10.46-7.2-20.93-12.61-31.39-16.23-1.43-.49-2.98-.23-4.25.6-12.65,8.28-27.89,11.08-46.66,18.56l-67.53-6.34v29.93l63.6-5.29c10.71,14.46,28.68,7.91,46.55,1.62ZM172.22,532.72l28.1-2.47c-17.44-10.28-36.95-28.15-56.2-45.09,6.27,17.56,14.88,33.82,28.1,47.56ZM505.31,446.92c-15.06-4.87-43.57,10.66-71.61,6.95-14.83-2.09-27.12,3.71-27.12,3.71-21.12-2.82-39.97-8.44-57.94-12.28-.95-.9-1.66-2.05-2.17-3.43-.3-.8-.91-1.45-1.69-1.81l-38.65-20.09-16.87,3.63,48.41,54.92c23.76,3.28,47.18-2.46,66.83-1.95l6.56,7.6c1.35,1.56,3.52,2.11,5.46,1.38,32.34-12.15,68.35-21.58,88.8-30.99v-7.65ZM660.82,394.57l-63.66-24.41,2.99,10.74,37.71,9.02h-187.54v9.12h-182.7l13.63,15.84c8.78-2.63,18.7-3.72,29.46-3.68,12.97,3.47,27.2,5.67,35.9,13.43l13.9,9.5h8.8l39.37,7.18c11.47-3.74,21.43-6.22,41.63-5.07v-37.01h44.94v10.86c6.96,1.49,13.17,3.52,18.69,6.03,3.56-5.42,7.09-11.19,12.18-16.9h76.54s-5.5,19.77-5.5,19.77l63.66-24.42ZM538.36,513.55c-20.12,43.02-42.88,83.19-47.57,144.88l-43.14-50.12c-.62,2.77-1.36,5.51-2.19,8.21l-88.7-103.05c-12.3-.19-23.71-1.45-31.97-5.09l-11.2,34.81c.37,12.59-.72,25.63-3.09,39.07l-2.95,2.63c-12.15,10.83-19.27,26.22-19.65,42.49l-8.39,80.42-106.85-47.3c-32.64-14.45-53.81-46.68-54.21-82.31-1.49-4.25-2.61-8.38-3.15-12.29-9.18-12.2-16.54-24.85-22.2-37.92h0s0,56.24,0,56.24c0,44.12,26.37,83.96,66.98,101.2l104.05,44.16h15.16l104.05-44.16c30.33-12.87,52.71-38.36,62.1-68.82,0,0,0,.02,0,.03l44.74,51.98h.01s15.48,3.44,15.48,3.44l16.52,3.68c.91-38.48,9.42-67.24,19.77-91.83-5.93,24.12-10.01,54.14-9.17,94.2l7.12,1.59c-1.82-75.11,13.9-114.51,26.53-146.18,2.11-5.28,4.14-10.39,6.01-15.44,5.67-14.6,9.61-29.75,10.06-47.15-10.93,6.49-22.69,10.08-34.4,10.31-1.36,10.57-4.69,21.53-9.74,32.33ZM255.91,399.04c-1.22,3.34-3.85,6.3-7.73,8.92,9.59.11,18.01,4.02,25.93,9.49l-15.84-18.41h-2.36ZM156.94,385.9l11.57-40.01-11.12-56.98c4.87-18.84,16.05-30.59,31.96-37.06,37.28-19.46,63.01-4.27,96.19,7.21,3.57,1.24,5.76,4.85,5.2,8.59l-3.64,24.04,7.41,20.84-6.49,11.58,8.85,11.61,100.18-116.11h9.36l-105.15,121.87-1.19,7.64-9.26,5.1,4.63,11.12-9.26,10.65,4.17,8.34-5.95,5.41h165.93v-150.73c-7.58-7.58-11.82-11.82-19.4-19.4h-24.3l84.17-97.56c4.69,61.69,27.45,101.85,47.57,144.87,20.79,44.44,12.6,91.57-43.1,103.46v10.86h56.02c16.61-11.96,27.82-31.33,30.92-58.72.7-9.75.32-18.77-.88-27.3-2.81-27.77-11.36-52.94-19.72-77.44-12.81-37.54-24.88-73.1-18.55-117.68l-7.4,1.65c-5.7,45.14,6.95,82.32,19.24,118.32,1.57,4.59,3.14,9.21,4.68,13.86-16.46-33.44-35.97-69.74-37.38-129.17l-.59.13-14.8,3.3c-1.25,12.56-1.71,27.62-.52,40.71-3.81-13.46-5.53-29.46-5.86-39.29l-10.23,2.28s0,0,0,.01h0s-92.92,107.7-92.92,107.7H112.5c-7.58,7.58-11.82,11.82-19.4,19.4v147.73l5.93.83c20.31-.77,40.75-1.58,57.91-1.68ZM394.87,512.03c-9.1.52-19.05,1.19-28.8,1.4l81.58,94.79c1.74-7.78,2.66-15.81,2.66-24v-78.5c-12.22,4.91-23.8,9.05-34.76,11.87-7.1-1.13-14-2.98-20.69-5.56Z" class="cls-1"/>
</svg>