<?xml version="1.0" encoding="UTF-8"?>
<svg id="Layer_1" data-name="Layer 1" xmlns="http://www.w3.org/2000/svg" viewBox="0 0 753.92 829.69">
  <path d="M660.66,394.37l-63.62-24.4,2.99,10.74,37.68,9.01h-187.2v-150.74c-7.58-7.58-11.82-11.82-19.4-19.4h-24.52l84.15-97.54c4.69,61.65,27.43,101.78,47.54,144.77,20.77,44.41,12.59,91.51-43.07,103.39v10.86h55.98c16.59-11.95,27.8-31.31,30.9-58.68.7-9.74.32-18.76-.88-27.29-2.8-27.75-11.36-52.9-19.71-77.39-12.8-37.51-24.86-73.05-18.54-117.59l-7.39,1.65c-5.69,45.11,6.95,82.26,19.22,118.24,1.57,4.59,3.13,9.2,4.67,13.85-16.45-33.41-35.94-69.69-37.36-129.08l-.59.13-14.79,3.3c-1.25,12.56-1.71,27.6-.52,40.68-3.81-13.46-5.53-29.44-5.85-39.26l-10.23,2.28s0,0,0,.01h0s-92.9,107.68-92.9,107.68H112.67c-7.58,7.58-11.82,11.82-19.4,19.4v158.44l67.54,6.34c18.78-7.48,34.01-10.28,46.66-18.56,1.26-.83,2.82-1.09,4.25-.6,10.47,3.62,20.93,9.03,31.39,16.23-.24,3.92-1.17,7.02-3.09,8.96-5.29-5.7-14.19-10.03-24.32-13.9l20.62,23.39c-1.4,4.11-3.5,7.22-6.49,9.03l-.23-6.02-16.45-11.35-2.32,2.08,14.82,22c-1.97,5.79-5.46,9.73-9.73,12.74l.93-7.41-13.43-16.68c-17.88,6.29-35.85,12.84-46.56-1.62l-63.6,5.29v28.77l23.26-3.35-23.26,10.99v120.44c0,44.12,26.37,83.96,66.99,101.2l104.05,44.17h15.16l104.05-44.17c30.35-12.88,52.75-38.4,62.13-68.89l44.48,51.68h.01s15.47,3.44,15.47,3.44l16.51,3.68c.91-38.45,9.42-67.2,19.76-91.77-5.93,24.11-10,54.1-9.17,94.13l7.12,1.59c-1.82-75.06,13.89-114.43,26.51-146.07,2.11-5.28,4.14-10.38,6.01-15.43,7.03-18.1,11.41-37.04,9.75-60.06-.2-2.74-.55-5.39-.96-8,.48-6.17,2.51-13.49,4.25-18.13l-3.01-7.88,3.23-6.77c-1.18-3.89-2.23-7.2-4.86-9.45-2.95-1.39-7.24-4.52-12.13-8.46h33.92l-5.5,19.75,63.62-24.4ZM450.51,399.02h44.7v10.86c7.12,1.52,13.44,3.62,19.05,6.21-4.05,6.21-8.06,11.97-14.35,16.64-13.9,3.98-29.72,4.36-46.09,3.71-1.14-.08-2.23-.15-3.31-.21v-37.2ZM426.42,230.88l9.05,9.05,3.73,3.73v146.05h-154.64l5.95-5.41-4.17-8.34,9.27-10.66-4.63-11.12,9.27-5.1,1.19-7.64,95.4-110.58h29.58ZM281.43,414.86l-13.63-15.84h171.41v36.93c-13.08.2-21.22,2.37-30.33,5.34l-39.38-7.18h-8.8l-13.9-9.5c-8.7-7.76-22.94-9.96-35.9-13.43-10.77-.04-20.69,1.05-29.47,3.68ZM283.75,428.9s45.6,51.68,45.55,51.78l-29.52,20.38c-7.7-26.99-3.1-46.02-18.1-65.49l2.07-6.67ZM256.09,399.02h2.36l15.85,18.41c-7.93-5.48-16.34-9.38-25.93-9.49,3.87-2.62,6.5-5.58,7.73-8.92ZM245.74,384.36c1.17-6.51,5.86-15.08,10.46-18.75,0,0,4.61.01,7.23,2.74l-12.07,16.01h-5.61ZM276.22,346.23c1.78-5.11,1.34-9.71,5.01-13.1.57-.53,1.44-.62,2.1-.21l1.59.98c.35.21.59.55.72.94.78,2.22,2.25,3.75,3.86,5.14.51.44.7,1.14.51,1.79l-.46,1.53c-.19.64-.75,1.1-1.41,1.21-4.66.76-7.11,2.22-9.31,3.76-.69.48-1.61.4-2.21-.19h-.01c-.48-.49-.61-1.2-.39-1.84ZM182.87,385.8h-18.22l12.37-32.22c3.74,2.8,11.73,4.57,20.38,6.18l-14.53,26.05ZM213.09,327.29c-.1.51-.44.94-.92,1.16l-.71.33c-.45.21-.96.19-1.4-.02-2.12-1-7.26-3.21-7.26-3.21-3.03,1.28-4.65,3.42-6.25,5.56.61,5.49,3.71,10.29,8.51,14.63.49.45.68,1.14.46,1.77l-.16.45c-.37,1.04-1.63,1.41-2.52.78-6.51-4.61-10.88-10.9-11.65-17.71-.03-.3.02-.62.14-.9,2.32-5.33,5.36-9.59,8.94-13.02.56-.54,1.44-.58,2.08-.13,3.13,2.21,6.32,4.13,9.59,5.6.38.17.68.48.84.86.2.48.45,1.14.59,1.6.07.24.07.5.02.75l-.31,1.49ZM189.53,251.82c-15.91,6.46-27.1,18.22-31.96,37.06l11.12,56.98-11.57,40.02c-15.65.09-34.03.77-52.54,1.47v-143.69l6.39-6.39,6.39-6.39h270.13l-90.43,104.82-8.85-11.61,6.49-11.58-7.41-20.85,3.64-24.04c.57-3.74-1.62-7.35-5.2-8.59-33.17-11.48-58.91-26.67-96.19-7.21ZM230.36,335.32c2.13-10.39,4.79-19.99,9.99-25.8.62-.7,1.46-1.16,2.36-1.41l4.54-1.26c.43-.12.8-.4,1.03-.79l2.19-3.74c.24-.42.3-.92.16-1.38l-1.85-5.98-1.27-1.73c-.57-.79-.39-1.89.42-2.44l2.44-1.68,25.36,1.34,8.05,21.09-1.71,2.93c-13.9-8.53-36.73-1.89-27.55,13.15,3.42,4.58,7.27,5.41,10.05,9.39.36.52.37,1.22.06,1.77l-3.52,6.43c-.61,1.11-.56,2.47.13,3.53l4.49,6.93c-10.82-7.7-40.38,4.11-35.36-20.36ZM243.11,452.41c16.52,16.29,32.62,34.84,48.49,54.66v7.64l-11.04,10.42-3.94,9.03c4.97,2.24,9.38,5.01,12.86,8.69l2.12,33.59c-9.11-5.91-17.67-11.25-24.24-14.59-.52,12.36-2.12,23.9-6.6,33.24-17.37-17.6-32.91-40.84-42.27-47.95,13.05-4.72,25.22-8.86,34.98-11.47l-.35-3.59c-8.34-4.4-16.55-6.12-22-10.77l-16.1-25.59c8.34-9.61,18.08-25.8,28.1-43.31ZM200.49,530.24l-28.1,2.47c-13.22-13.74-21.83-30-28.1-47.56,19.26,16.94,38.77,34.81,56.21,45.09ZM379.11,675l-101.94,43.27h-10.56l-101.94-43.27c-36.51-15.5-60.1-51.14-60.1-90.8v-34.44c3.31,5.46,6.92,10.84,10.9,16.12.55,3.91,1.66,8.04,3.15,12.29.4,35.63,21.57,67.87,54.21,82.32l106.86,47.3,8.39-80.42c.38-16.27,7.5-31.66,19.65-42.5l2.95-2.63c2.38-13.44,3.46-26.47,3.09-39.07l11.2-34.82c8.27,3.65,19.68,4.91,31.97,5.09l79.79,92.71c-6.93,30.46-28.03,56.27-57.63,68.84ZM439.21,584.2c0,4.37-.33,8.68-.89,12.93l-72.06-83.72c9.75-.21,19.7-.88,28.8-1.4,6.7,2.58,13.59,4.43,20.69,5.56,7.52-1.94,15.34-4.49,23.46-7.49v74.12ZM416.48,485.7c-1.93.73-4.1.18-5.45-1.38l-6.56-7.59c-19.64-.52-43.04,5.23-66.79,1.94l-48.38-54.89,16.87-3.63,38.63,20.07c.78.36,1.39,1,1.69,1.81.51,1.37,1.22,2.53,2.17,3.42,17.96,3.84,36.8,9.46,57.91,12.28,0,0,12.28-5.79,27.1-3.71,28.03,3.71,56.52-11.81,71.57-6.95v7.64c-20.44,9.41-56.43,18.83-88.75,30.98ZM538.28,513.26c-20.11,42.99-42.85,83.13-47.54,144.78l-42.89-49.83c1.74-7.78,2.65-15.82,2.65-24.01v-78.5c21.33-8.57,44.61-19.53,69.94-30.13,9.16,4.53,18.3,6.66,27.41,6.52-1.45,10.21-4.7,20.76-9.57,31.17ZM556.04,466.15v-9.88c6.63.87,13.53,1.9,18.07,1.54-.38,5.45-9.33,6.85-18.07,8.34ZM574.8,442.97c-5.59,2.45-12.35,4.22-19.46,5.79v-11.12c4.35.73,11.89.94,19.46,1.16v4.17ZM574.8,426.29v3.68c-12.05-2.57-21.56-11.22-30.76-17.35l-.26,10.78c-5.02,9.29-15.18,10.34-26.11,10.16l16.45-29.62h13.34l17.88,5.52,9.46,16.82Z"/>
</svg>